<?xml version="1.0" encoding="UTF-8" standalone="no"?>
<svg
   width="649.3056"
   height="800"
   viewBox="0 0 649.30611 799.99999"
   fill="none"
   version="1.1"
   id="svg12"
   sodipodi:docname="markdown_sheet 1.svg"
   inkscape:version="1.4.4 (dcaf3e7d, 2026-05-05)"
   xmlns:inkscape="http://www.inkscape.org/namespaces/inkscape"
   xmlns:sodipodi="http://sodipodi.sourceforge.net/DTD/sodipodi-0.dtd"
   xmlns="http://www.w3.org/2000/svg"
   xmlns:svg="http://www.w3.org/2000/svg">
  <defs
     id="defs12" />
  <sodipodi:namedview
     id="namedview12"
     pagecolor="#ffffff"
     bordercolor="#000000"
     borderopacity="0.25"
     inkscape:showpageshadow="2"
     inkscape:pageopacity="0.0"
     inkscape:pagecheckerboard="0"
     inkscape:deskcolor="#d1d1d1"
     inkscape:zoom="0.52336094"
     inkscape:cx="484.36935"
     inkscape:cy="433.73508"
     inkscape:window-width="1440"
     inkscape:window-height="847"
     inkscape:window-x="0"
     inkscape:window-y="25"
     inkscape:window-maximized="1"
     inkscape:current-layer="svg12" />
  <path
     d="M 385.1837,148.57164 H 136.74897 c -11.05458,0 -20.01606,8.96149 -20.01606,20.01607 v 389.72461 c 0,11.05475 8.96148,20.01606 20.01606,20.01606 H 385.1837 c 11.05476,0 20.01607,-8.96131 20.01607,-20.01606 V 168.58771 c 0,-11.05458 -8.96131,-20.01607 -20.01607,-20.01607 z"
     fill="#070b12"
     stroke="#ffd60a"
     stroke-width="8"
     stroke-linecap="round"
     stroke-linejoin="round"
     id="path1" />
  <path
     d="M 146.1683,189.78119 H 322.78066"
     stroke="#ffd60a"
     stroke-width="18"
     stroke-linecap="round"
     stroke-linejoin="round"
     id="path2" />
  <path
     d="M 146.1683,236.87782 H 375.76437"
     stroke="#f5c518"
     stroke-width="9"
     stroke-linecap="round"
     stroke-linejoin="round"
     id="path3" />
  <path
     d="M 146.1683,272.20029 H 319.83713"
     stroke="#f5c518"
     stroke-width="9"
     stroke-linecap="round"
     stroke-linejoin="round"
     id="path4" />
  <path
     d="M 146.1683,304.57923 H 278.62757"
     stroke="#ffd60a"
     stroke-width="15"
     stroke-linecap="round"
     stroke-linejoin="round"
     id="path5" />
  <path
     d="M 146.1683,348.73232 H 346.32898"
     stroke="#f5c518"
     stroke-width="9"
     stroke-linecap="round"
     stroke-linejoin="round"
     id="path6" />
  <path
     d="M 366.34505,389.94187 H 155.58763 c -5.20242,0 -9.41933,4.21691 -9.41933,9.41932 v 42.97568 c 0,5.20241 4.21691,9.41932 9.41933,9.41932 h 210.75742 c 5.20241,0 9.41932,-4.21691 9.41932,-9.41932 v -42.97568 c 0,-5.20241 -4.21691,-9.41932 -9.41932,-9.41932 z"
     fill="#070b12"
     stroke="#ffd60a"
     stroke-width="5"
     stroke-linecap="round"
     stroke-linejoin="round"
     id="path7" />
  <path
     d="M 160.886,404.65956 V 437.0385"
     stroke="#ffbf00"
     stroke-width="10"
     stroke-linecap="round"
     stroke-linejoin="round"
     id="path8" />
  <path
     d="m 152.05538,490.0222 c 2.27594,0 4.12095,-1.84501 4.12095,-4.12095 0,-2.27595 -1.84501,-4.12096 -4.12095,-4.12096 -2.27595,0 -4.12096,1.84501 -4.12096,4.12096 0,2.27594 1.84501,4.12095 4.12096,4.12095 z"
     fill="#ffd60a"
     id="path9"
     style="stroke-width:0.588708" />
  <path
     d="M 169.71662,485.90125 H 322.78066"
     stroke="#f5c518"
     stroke-width="9"
     stroke-linecap="round"
     stroke-linejoin="round"
     id="path10" />
  <path
     d="m 152.05538,520.63501 c 2.27594,0 4.12095,-1.84501 4.12095,-4.12095 0,-2.27595 -1.84501,-4.12096 -4.12095,-4.12096 -2.27595,0 -4.12096,1.84501 -4.12096,4.12096 0,2.27594 1.84501,4.12095 4.12096,4.12095 z"
     fill="#ffd60a"
     id="path11"
     style="stroke-width:0.588708" />
  <path
     d="m 169.71662,516.51406 h 91.24972"
     stroke="#f5c518"
     stroke-width="9"
     stroke-linecap="round"
     stroke-linejoin="round"
     id="path12" />
  <path
     d="M 439.34482,180.36187 H 190.9101 c -11.05458,0 -20.01606,8.96148 -20.01606,20.01606 v 389.72461 c 0,11.05476 8.96148,20.01607 20.01606,20.01607 h 248.43472 c 11.05476,0 20.01607,-8.96131 20.01607,-20.01607 V 200.37793 c 0,-11.05458 -8.96131,-20.01606 -20.01607,-20.01606 z"
     fill="#070b12"
     stroke="#ffd60a"
     stroke-width="4.70966"
     stroke-linecap="round"
     stroke-linejoin="round"
     id="path13" />
  <path
     d="M 200.32943,221.57142 H 376.94179"
     stroke="#ffd60a"
     stroke-width="10.5967"
     stroke-linecap="round"
     stroke-linejoin="round"
     id="path14" />
  <path
     d="M 200.32943,268.66805 H 429.9255"
     stroke="#f5c518"
     stroke-width="5.29837"
     stroke-linecap="round"
     stroke-linejoin="round"
     id="path15" />
  <path
     d="M 200.32943,303.99052 H 373.99825"
     stroke="#f5c518"
     stroke-width="5.29837"
     stroke-linecap="round"
     stroke-linejoin="round"
     id="path16" />
  <path
     d="M 200.32943,336.36945 H 332.7887"
     stroke="#ffd60a"
     stroke-width="8.83062"
     stroke-linecap="round"
     stroke-linejoin="round"
     id="path17" />
  <path
     d="M 200.32943,380.52254 H 400.4901"
     stroke="#f5c518"
     stroke-width="5.29837"
     stroke-linecap="round"
     stroke-linejoin="round"
     id="path18" />
  <path
     d="M 420.50617,421.73209 H 209.74875 c -5.20241,0 -9.41932,4.21692 -9.41932,9.41933 v 42.97567 c 0,5.20241 4.21691,9.41933 9.41932,9.41933 h 210.75742 c 5.20241,0 9.41933,-4.21692 9.41933,-9.41933 v -42.97567 c 0,-5.20241 -4.21692,-9.41933 -9.41933,-9.41933 z"
     fill="#070b12"
     stroke="#ffd60a"
     stroke-width="2.94354"
     stroke-linecap="round"
     stroke-linejoin="round"
     id="path19" />
  <path
     d="m 215.04713,436.44979 v 32.37893"
     stroke="#ffbf00"
     stroke-width="5.88708"
     stroke-linecap="round"
     stroke-linejoin="round"
     id="path20" />
  <path
     d="m 206.21651,521.81243 c 2.27594,0 4.12095,-1.84501 4.12095,-4.12096 0,-2.27594 -1.84501,-4.12095 -4.12095,-4.12095 -2.27595,0 -4.12096,1.84501 -4.12096,4.12095 0,2.27595 1.84501,4.12096 4.12096,4.12096 z"
     fill="#ffd60a"
     id="path21"
     style="stroke-width:0.588708" />
  <path
     d="M 223.87774,517.69147 H 376.94179"
     stroke="#f5c518"
     stroke-width="5.29837"
     stroke-linecap="round"
     stroke-linejoin="round"
     id="path22" />
  <path
     d="m 206.21651,552.42524 c 2.27594,0 4.12095,-1.84501 4.12095,-4.12096 0,-2.27594 -1.84501,-4.12095 -4.12095,-4.12095 -2.27595,0 -4.12096,1.84501 -4.12096,4.12095 0,2.27595 1.84501,4.12096 4.12096,4.12096 z"
     fill="#ffd60a"
     id="path23"
     style="stroke-width:0.588708" />
  <path
     d="m 223.87774,548.30428 h 91.24972"
     stroke="#f5c518"
     stroke-width="5.29837"
     stroke-linecap="round"
     stroke-linejoin="round"
     id="path24" />
  <path
     d="M 220.886,440.65956 V 473.0385"
     stroke="#ffbf00"
     stroke-width="10"
     stroke-linecap="round"
     stroke-linejoin="round"
     id="path25" />
  <path
     d="M 229.71662,521.90125 H 382.78066"
     stroke="#f5c518"
     stroke-width="9"
     stroke-linecap="round"
     stroke-linejoin="round"
     id="path26" />
  <path
     d="m 229.71662,552.51406 h 91.24972"
     stroke="#f5c518"
     stroke-width="9"
     stroke-linecap="round"
     stroke-linejoin="round"
     id="path27" />
  <path
     d="M 499.34482,216.36187 H 250.9101 c -11.05458,0 -20.01606,8.96148 -20.01606,20.01606 v 389.72461 c 0,11.05476 8.96148,20.01607 20.01606,20.01607 h 248.43472 c 11.05476,0 20.01607,-8.96131 20.01607,-20.01607 V 236.37793 c 0,-11.05458 -8.96131,-20.01606 -20.01607,-20.01606 z"
     fill="#070b12"
     stroke="#ffd60a"
     stroke-width="4.70966"
     stroke-linecap="round"
     stroke-linejoin="round"
     id="path28" />
  <path
     d="M 260.32943,257.57142 H 436.94179"
     stroke="#ffd60a"
     stroke-width="10.5967"
     stroke-linecap="round"
     stroke-linejoin="round"
     id="path29" />
  <path
     d="M 260.32943,304.66805 H 489.9255"
     stroke="#f5c518"
     stroke-width="5.29837"
     stroke-linecap="round"
     stroke-linejoin="round"
     id="path30" />
  <path
     d="M 260.32943,339.99052 H 433.99825"
     stroke="#f5c518"
     stroke-width="5.29837"
     stroke-linecap="round"
     stroke-linejoin="round"
     id="path31" />
  <path
     d="M 260.32943,372.36945 H 392.7887"
     stroke="#ffd60a"
     stroke-width="8.83062"
     stroke-linecap="round"
     stroke-linejoin="round"
     id="path32" />
  <path
     d="M 260.32943,416.52254 H 460.4901"
     stroke="#f5c518"
     stroke-width="5.29837"
     stroke-linecap="round"
     stroke-linejoin="round"
     id="path33" />
  <path
     d="M 480.50617,457.73209 H 269.74875 c -5.20241,0 -9.41932,4.21692 -9.41932,9.41933 v 42.97567 c 0,5.20241 4.21691,9.41933 9.41932,9.41933 h 210.75742 c 5.20241,0 9.41933,-4.21692 9.41933,-9.41933 v -42.97567 c 0,-5.20241 -4.21692,-9.41933 -9.41933,-9.41933 z"
     fill="#070b12"
     stroke="#ffd60a"
     stroke-width="2.94354"
     stroke-linecap="round"
     stroke-linejoin="round"
     id="path34" />
  <path
     d="m 275.04713,472.44979 v 32.37893"
     stroke="#ffbf00"
     stroke-width="5.88708"
     stroke-linecap="round"
     stroke-linejoin="round"
     id="path35" />
  <path
     d="m 266.21651,557.81243 c 2.27594,0 4.12095,-1.84501 4.12095,-4.12096 0,-2.27594 -1.84501,-4.12095 -4.12095,-4.12095 -2.27595,0 -4.12096,1.84501 -4.12096,4.12095 0,2.27595 1.84501,4.12096 4.12096,4.12096 z"
     fill="#ffd60a"
     id="path36"
     style="stroke-width:0.588708" />
  <path
     d="M 283.87774,553.69147 H 436.94179"
     stroke="#f5c518"
     stroke-width="5.29837"
     stroke-linecap="round"
     stroke-linejoin="round"
     id="path37" />
  <path
     d="m 266.21651,588.42524 c 2.27594,0 4.12095,-1.84501 4.12095,-4.12096 0,-2.27594 -1.84501,-4.12095 -4.12095,-4.12095 -2.27595,0 -4.12096,1.84501 -4.12096,4.12095 0,2.27595 1.84501,4.12096 4.12096,4.12096 z"
     fill="#ffd60a"
     id="path38"
     style="stroke-width:0.588708" />
  <path
     d="m 283.87774,584.30428 h 91.24972"
     stroke="#f5c518"
     stroke-width="5.29837"
     stroke-linecap="round"
     stroke-linejoin="round"
     id="path39" />
</svg>
